<?xml version="1.0" encoding="utf-8"?>
<!-- Generator: Adobe Illustrator 16.0.0, SVG Export Plug-In . SVG Version: 6.00 Build 0)  -->
<!DOCTYPE svg PUBLIC "-//W3C//DTD SVG 1.1//EN" "http://www.w3.org/Graphics/SVG/1.1/DTD/svg11.dtd">
<svg version="1.1" id="Layer_1" xmlns="http://www.w3.org/2000/svg" xmlns:xlink="http://www.w3.org/1999/xlink" x="0px" y="0px"
	 width="1000px" height="1000px" viewBox="0 0 1000 1000" xml:space="preserve">
<g id="Výplň_barvou_1_kopie">
	<g>
		<path fill="#ffffff" d="M859.284,341.516c0,0-2.995-10.969-8.978-25.929c-5.985-14.96-14.961-45.877-14.961-45.877
			s0.997,2.991,11.968,9.972c10.973,6.982,22.936,6.982,22.936,6.982s-20.94-18.949-31.913-34.906
			c-10.969-15.959-15.956-41.888-31.913-60.837c-15.956-18.949-21.938-23.14-21.938-23.14s4.938,2.963,12.004,3.66
			c8.525,0.842,15.916-1.463,15.916-1.463s-28.667-6.771-47.87-24.933c-27.043-25.577-64.889-27.301-64.889-27.301
			s3.944-3.803,16.272-1.372c10.511,2.074,17.275,5.196,17.275,5.196s-10.109-12.763-27.996-16.417
			c-23.647-4.829-38.602-2.792-38.602-2.792s2.362-6.919,26.069-5.436c11.079,0.694,17.02,3.243,17.02,3.243
			s-13.969-9.957-27.928-10.971c-13.4-0.976-29.425-0.331-37.225,4.924c0.288-0.192-3.373-3.484-1.741-7.091
			c1.875-4.147,6.843-9.648,8.811-9.283c-3.267-0.607-9.687-0.132-14.054,2.885c-5.811,4.011-10.263,10.987-10.263,10.987
			s-0.288-7.726,4.013-14.536c6.161-9.752,21.038-11.99,21.038-11.99s-20.372-7.408-36.239,7.5
			c-3.817,3.587-7.845,14.298-8.249,14.293c1.655,0.051,6.087,0.188-0.001,0c0,0,0,0,0.001,0c-0.333-0.01-0.557-0.017-0.557-0.017
			s-2.971-5.081-0.666-13.132c6.777-23.697,24.162-28.402,24.162-28.402s-20.339-1.35-34.469,14.274
			c-5.987,6.624-14.041,19.778-14.168,20.753c0.067-0.531,2.065-4.671,0.703-14.55c-1.149-8.328-5.707-14.916-8.271-21.23
			c-4.492-11.052-5.956-21.997,2.541-29.028c-1.821,1.51-7.094-0.406-12.913,7.451c-2.159,2.914-4.537,17.347-1.574,35.78
			c1.173,7.299-7.678,17.34-8.287,15.285c-3.238-10.9-1.249-25.505-21.524-39.061C513.46,22.06,492.6,29.023,492.6,29.023
			s20.795,2.483,30.95,14.096c10.233,11.709,5.615,25.132,5.615,25.132s-4.793-10.233-12.941-15.771
			c-15.651-10.636-29.94-10.161-29.94-10.161s12.564,6.771,17.287,12.966c4.704,6.17,2.658,8.976,2.658,8.976
			s-3.863-4.184-8.416-7.393c-3.479-2.452-9.969-5.556-12.125-5.578c-0.852-0.01,2.242,1.891,3.321,5.304
			c0.992,3.137,0.716,5.866-0.152,5.184c-10.738-8.44-28.504-14.399-41.562-15.313c-32.132-2.243-43.789,2.837-43.789,2.837
			s17.952,0.663,33.911,7.646c15.956,6.982,22.605,15.958,22.605,15.958s-74.466-19.615-128.323,2.328
			c-53.856,21.939-76.794,44.878-103.722,52.856c-26.927,7.979-55.849,9.973-55.849,9.973s17.953,14.96,42.884,11.97
			c24.935-2.994,54.854-18.95,54.854-18.95s-58.658,42.947-91.753,83.774c-51.486,63.517-47.872,111.701-47.872,111.701
			s11.284-37.525,32.913-57.846c11.307-10.623,28.923-18.948,28.923-18.948s-30.921,35.208-39.894,62.83
			c-21.443,66.011-13.961,103.721-13.961,103.721s12.766-28.344,23.935-42.884c9.287-12.093,21.939-18.95,21.939-18.95
			s-20.46,46.628-27.145,92.191c-8.197,55.88,3.21,82.342,3.21,82.342s1.465-17.08,5.797-31.947
			c3.005-10.313,11.158-20.911,11.158-20.911s-12.643,58.817-10.971,83.774c3.18,47.435,14.96,63.829,14.96,63.829
			s-0.997,15.957,6.982,37.899c7.979,21.938,32.163,48.12,32.163,48.12s12.716,37.647,24.684,57.594
			c11.968,19.944,20.322,25.245,19.323,44.191c-0.996,18.952-10.346,26.776-10.346,26.776s15.043-3.88,19.945-12.791
			c3.658-6.648,4.322-17.621,4.322-17.621s3.657,18.286,21.609,41.227c17.951,22.937,39.893,30.915,39.893,30.915
			s-6.765-10.657-6.765-20.632s2.775-18.265,2.775-18.265s10.969,9.975,12.964,16.954c1.995,6.983,15.958,27.929,24.933,33.909
			c8.977,5.985,14.524,5.394,14.524,5.394s-7.332-6.497-10.972-12.779c-4.675-8.07-2.554-15.55-2.554-15.55
			s17.951,20.943,36.9,31.913c18.95,10.969,56.848,35.9,65.823,51.861c8.977,15.958,18.619,26.945,29.588,27.945
			c10.974,0.997,19.312-4.728,22.303-10.709c2.996-5.986,1.591-14.897,1.591-14.897s-5.608,9.658-13.586,8.631
			c-6.997-0.901-5.986-12.966,5.981-24.933c11.972-11.968,22.937-21.942,42.886-29.921c19.945-7.978,28.923-13.963,35.902-18.947
			c6.984-4.987,17.953-16.955,17.953-16.955s0,6.98-2.991,11.968c-2.994,4.987-9.975,12.965-9.975,12.965s10.974-3.987,18.951-9.975
			c7.979-5.981,13.96-15.956,19.941-25.931c5.985-9.972,12.97-16.954,12.97-16.954s4.505,7.75,3.985,15.96
			c-0.993,15.83-13.96,25.927-13.96,25.927s12.967-0.993,26.931-11.967c13.959-10.969,28.917-28.922,39.891-45.877
			c10.969-16.956,14.958-33.91,14.958-33.91s16.955-14.958,25.931-24.933c8.978-9.971,27.929-38.893,32.911-53.855
			c4.987-14.958,8.978-46.871,8.978-46.871l5.98,15.956c0,0,5.986-6.979,9.976-21.941c3.989-14.958,4.987-29.921,4.987-29.921
			s10.97-9.971,14.963-26.926c3.984-16.954,3.984-36.899,2.987-45.876c-0.996-8.977-4.984-32.911-4.984-32.911l9.975,8.976
			c0,0,6.825-24.624,2.986-58.842c-2.328-20.838-10.964-56.849-10.964-75.798s1.991-14.96,1.991-14.96s5.986,0.999,10.971,6.982
			c4.985,5.983,7.979,15.957,7.979,15.957s3.181-13.089,0-42.885c-1.774-16.623-16.769-49.117-16.769-49.117
			s7.791,12.217,11.783,16.206C854.292,338.524,859.284,341.516,859.284,341.516z M756.557,401.356
			c-5.981,14.958-10.973,26.928-13.959,31.913c-2.996,4.987,0.993,31.915-0.999,45.877c-1.997,13.962-7.978,28.925-15.957,39.893
			c-7.978,10.971-13.468,17.803-27.302,25.368c-6.672,3.648-13.725,8.997-19.763,7.981c-4.002-0.677-24.528-50.481-38.424-75.081
			c-18.513-32.788-53.679-96.604-54.483-93.367c-0.592,2.392,37.408,72.784,52.812,104.861
			c13.98,29.109,34.096,97.208,34.299,100.048c1.526,20.992,3.243,28.924,1.121,52.171c-1.737,19.107-8.101,43.573-19.073,66.513
			c-10.97,22.937-23.936,39.892-33.91,48.868c-9.971,8.977-25.927,14.959-53.851,18.947c-27.928,3.989-38.897,0.999-47.874,0
			c-8.973-0.994-10.969,5.986-25.929,5.986s-45.877-5.986-81.781-16.956c-35.903-10.968-55.85-40.888-67.817-70.809
			c-11.969-29.921-17.953-46.877-18.949-72.808c-0.999-25.927,7.162-58.128,8.787-63.891c3.056-10.815,31.147-64.605,38.852-80.6
			c20.897-43.367,65.729-94.96,64.797-97.267c-0.4-0.987-48.205,50.621-72.558,99.026c-9.508,18.899-19.505,42.33-32.049,54.015
			c-3.136,2.917-12.915-1.47-14.812-3.033c-16.458-13.59-23.935-29.92-30.917-55.851c-6.982-25.931,0-46.874-0.996-52.859
			c-0.999-5.983-7.981-11.967-21.943-36.9c-13.961-24.933-6.981-103.722,5.984-144.61c12.966-40.892,43.882-60.837,63.828-75.798
			c19.948-14.96,56.848-24.933,92.752-20.944c35.904,3.989,57.054,19.619,92.75,25.931c41.949,7.419,61.679-16.863,127.722,4.176
			c47.998,15.293,72.866,35.092,95.737,64.95c22.321,29.131,25.871,63.517,26.869,91.443
			C770.518,356.476,762.539,386.396,756.557,401.356z"/>
	</g>
</g>
<g id="Výplň_barvou_2">
	<g>
		<path fill="#ffffff" d="M197.06,161.001c0,0-17.359,4.395-30.417,1.278c-17.136-4.09-24.932-14.03-32.415-18.729
			c-8.882-5.58-20.445-5.984-29.918,8.477c-9.476,14.461-29.736,58.568-36.403,112.199c-6.98,56.16-2.492,90.755,21.942,115.189
			c24.434,24.434,38.708,26.938,38.708,26.938s4.91-0.271-1.643-3.192c-4.643-2.07-17.101-12.698-20.902-17.118
			c-10.863-12.637-19.28-23.563-22.802-39.737c-6.388-29.338-2.312-60.348,1.361-88.19c7.949-60.245,23.233-84.398,27.697-94.434
			c5.515-12.404,17.368-15.584,26.844-10.097c9.473,5.484,14.564,11.405,29.025,12.903c7.532,0.779,25.894-1.579,31.027-4.124
			C204.711,159.611,197.06,161.001,197.06,161.001z"/>
	</g>
</g>
<g id="Výplň_barvou_3">
	<g>
		<path fill="#ffffff" d="M162.757,208.02c-14.029-5.122-21.547-27.571-25.037-34.553c-3.492-6.979-6.982-10.968-6.982-10.968
			s3.989,8.974,6.482,21.44c2.494,12.466,4.489,21.007,11.968,26.991c7.48,5.983,17.517,10.658,21.006,11.656
			c3.491,0.997,29.835,4.946,29.835,4.946S181.292,214.788,162.757,208.02z"/>
	</g>
</g>
<g id="Výplň_barvou_2_kopie">
	<g>
		<path fill="#ffffff" d="M916.69,208.305c-7.284-15.679-18.785-16.951-28.383-12.717c-8.083,3.57-26.309,11.316-43.755,8.861
			c-5.721-0.805-23.779-9.831-27.623-13.144c-8.136-7.017-5.312-1.496-5.312-1.496s14.764,14.829,30.847,18.586
			c14.157,3.31,36.859-3.034,47.028-7.089c10.167-4.059,16.923,2.685,20.582,15.757c2.973,10.575,15.417,40.705,14.569,101.464
			c-0.393,28.082,0.463,54.097-9.235,85.925c-4.919,16.123-9.302,26.489-17.122,36.608c-9.28,12.01-46.825,36.989-46.825,36.989
			s42.743-15.383,58.338-42.531c10.381-18.077,25.47-54.351,26.683-110.933C937.639,270.558,923.971,223.982,916.69,208.305z"/>
	</g>
</g>
<g id="Výplň_barvou_4">
	<g>
		<path fill="#ffffff" d="M923.16,271.136c-0.298-1.481-2.29-19.702-2.314-18.274c-0.162,7.788-1.932,8.649-2.312,7.175
			c-5.783-22.297-11.299-29.939-14.599-32.639c-11.653-9.543-15.813,5.608-16.486,8.426c-2.387,7.029-7.256,15.145-12.71,22.415
			c-4.985,6.651-16.096,12.221-24.975,15.855c-7.101,2.905-15.307-8.125-15.307-8.125s-2.885,48.164-2.621,86.911
			c0.397,58.933,7.004,130.216,10.21,129.196c56.411-17.974,81.17-58.581,85.037-143.858
			C928.386,309.448,926.442,287.563,923.16,271.136z M922.566,327.213c-0.512,18.211-4.395,39.114-11.185,64.127
			c-3.089,11.394-8.464,28.227-11.047,30.644c-2.572,2.418-6.708,3.68-9.585,2.393c-2.882-1.287-6.223-4.623-3.156-12.004
			c3.067-7.379,13.692-27.207,17.814-40.102c4.271-13.344,11.688-40.027,13.383-60.572c2.794-33.812,2.062-37.392,3.76-35.243
			c1.136,1.441,0.349,3.988,0.45,6.39C923.573,296.613,922.857,316.528,922.566,327.213z M106.055,304.865
			c-2.743-16.206-1.307-31.255-0.748-49.867c0.551-18.337,4.118-41.429,4.488-44.381c0.749-5.984,2.992-22.689-0.997-11.967
			c-2.339,6.288-9.476,29.92-11.72,51.361c-2.126,20.335-5.234,61.586-2.741,80.035c2.491,18.451,9.474,30.917,12.963,31.916
			c3.492,0.996,6.483,0.496,9.477-2.993c2.99-3.49,0.499-16.456-1.497-21.443C113.286,332.542,108.889,321.611,106.055,304.865z"/>
	</g>
</g>
<g id="Výplň_barvou_5">
	<g>
		<path fill="#ffffff" d="M503.237,457.703c-0.158-3.794-2.71-12.48-6.981-15.458c-6.17-4.302-22.938-5.983-28.922-5.983
			c-5.983,0-14.274,2.398-19.259,10.379c-4.988,7.978-5.828,13.357-1.684,21.534c3.493,6.889,13.964,13.964,18.949,15.959
			c4.987,1.994,11.47,2.493,11.47,2.493s-8.354-2.557-14.649-7.761c-6.294-5.205-12.185-16.206-11.188-22.19
			c0.998-5.986,5.391-11.439,12.373-12.936c6.981-1.496,24.932,0,30.417,4.489c5.486,4.488,6.485,29.421,6.485,29.421
			S503.518,464.343,503.237,457.703z"/>
	</g>
</g>
<g id="Výplň_barvou_5_kopie">
	<g>
		<path fill="#ffffff" d="M569.568,451.906c-4.271-8.383-12.32-11.497-18.278-12.02c-5.961-0.521-22.814-0.309-29.332,3.437
			c-4.521,2.594-7.816,11.024-8.308,14.792c-0.855,6.585,1.238,20.13,1.238,20.13s3.174-24.75,9.025-28.744
			c5.859-3.991,23.87-3.916,30.695-1.816c6.826,2.101,10.726,7.917,11.201,13.964c0.47,6.049-6.36,16.495-13.084,21.131
			c-6.728,4.634-15.274,6.452-15.274,6.452s6.501,0.069,11.646-1.482c5.142-1.553,16.191-7.687,20.266-14.243
			C574.211,465.722,573.841,460.291,569.568,451.906z"/>
	</g>
</g>
<g id="Výplň_barvou_6">
	<g>
		<path fill="#ffffff" d="M663.805,624.757c-1.493-2.495-3.984,5.483-9.472,11.968c-15.136,17.885-48.104,19.629-76.446,15.209
			c-33.309-5.193-60.215-18.15-44.233-12.218c-9.674-3.592-18.367-8.94-35.403-8.977c-17.5-0.042-24.287,4.341-33.319,6.387
			c12.177-2.759-11.636,6.903-42.068,10.247c-29.371,3.23-64.904,0.442-80.194-17.633c-5.484-6.479-3.989-14.957-5.984-14.459
			c-1.994,0.5-2.124,9.437,0.999,15.458c6.98,13.465,24.933,18.951,38.396,21.442c13.464,2.492,36.403,4.489,58.343,0
			c21.94-4.487,44.878-5.985,64.328-6.484c19.45-0.495,45.475,6.883,65.822,10.474c42.387,7.479,58.48,1.677,73.301-2.491
			C653.83,649.191,665.303,627.249,663.805,624.757z"/>
	</g>
</g>
<g id="Tvar_2">
	<g>
		<path fill="#ffffff" d="M497.254,610.294c-2.982,0-1.828,6.307-1.828,14.293c0,7.99,0.175,14.63,1.828,14.63
			c1.652,0,1.662-6.64,1.662-14.63C498.916,616.601,500.239,610.294,497.254,610.294z"/>
	</g>
</g>
<g id="Tvar_2_kopie">
	<g>
		<path fill="#ffffff" d="M553.765,633.563c-1.74-8.485-0.17-14.045-3.157-14.045c-2.979,0-1.825,6.06-0.332,14.045
			c1.474,7.853,5.413,15.376,7.069,15.376C558.992,648.939,555.381,641.388,553.765,633.563z"/>
	</g>
</g>
<g id="Tvar_2_kopie_2">
	<g>
		<path fill="#ffffff" d="M605.629,644.537c-2.038-9.318-2.128-11.555-3.409-11.555c-2.979,0-1.826,4.314-0.082,11.555
			c1.876,7.762,5.162,11.882,6.818,11.882C610.604,656.419,607.333,652.336,605.629,644.537z"/>
	</g>
</g>
<g id="Tvar_2_kopie_3">
	<g>
		<path fill="#ffffff" d="M441.901,618.523c-2.98,0-1.412,5.56-3.157,14.046c-1.608,7.82-5.226,15.373-3.573,15.373
			c1.651,0,5.592-7.525,7.062-15.373C443.73,624.582,444.884,618.523,441.901,618.523z"/>
	</g>
</g>
<g id="Tvar_2_kopie_4">
	<g>
		<path fill="#ffffff" d="M390.291,626.003c-1.278,0-1.371,2.236-3.407,11.55c-1.707,7.803-4.978,11.887-3.325,11.887
			c1.654,0,4.942-4.12,6.815-11.887C392.119,630.317,393.273,626.003,390.291,626.003z"/>
	</g>
</g>
<g id="Výplň_barvou_7">
	<g>
		<path fill="#ffffff" d="M679.267,299.63c-8.977-7.98-19.446-13.465-29.92-15.459c-10.475-1.995-28.923-0.499-36.901,0.5
			c-7.978,0.996-7.482,2.494-15.956,8.974c-8.481,6.484-15.956,8.478-15.956,8.478s17.948-22.938,21.438-25.43
			c3.494-2.494,12.966-3.493,21.443-3.493s20.944,0.499,28.422,1.995c7.479,1.498,16.955,5.486,20.944,5.984
			c3.989,0.499,2.996-1.497-0.494-4.986c-3.495-3.492-22.441-10.971-31.418-13.465s-20.944-2.494-27.928-0.498
			c-6.98,1.995-12.467,5.984-21.938,18.451c-9.477,12.466-19.447,30.917-19.447,30.917s4.488-0.5,13.96-4.489
			c9.477-3.989,19.447-9.476,27.426-13.962c7.978-4.488,24.932-0.999,38.896,0.497c13.965,1.499,15.459,6.982,23.94,11.97
			c8.473,4.985,10.969,7.978,13.959,6.482C692.731,310.599,688.244,307.608,679.267,299.63z"/>
	</g>
</g>
<g id="Výplň_barvou_8">
	<g>
		<path fill="#ffffff" d="M665.011,331.356c-5.673,1.964-7.187,0.187-14.671,1.185c-7.476,0.997-28.423-0.5-37.398-1.498
			c-8.977-0.997-15.454-8.974-17.45-6.48c-1.997,2.492-0.999,1.995,0.495,3.989c1.501,1.994,5.985,6.98,17.953,12.466
			c11.971,5.485,17.953,3.989,29.421,2.991c11.469-0.996,19.35-4.29,27.03-8.621C696.65,320.584,665.015,331.356,665.011,331.356z"
			/>
	</g>
</g>
<g id="Výplň_barvou_9">
	<g>
		<path fill="#ffffff" d="M667.798,349.496c-0.998-1.997-8.481,4.486-15.461,6.98s-16.456,1.495-24.434,0.499
			c-7.979-0.998-10.929-4.159-11.473-1.994c-0.495,1.994,0.999,4.488,7.982,7.979c6.493,3.247,15.457,4.487,23.437,3.49
			C655.826,365.453,668.792,351.491,667.798,349.496z"/>
	</g>
</g>
<g id="Výplň_barvou_7_1_">
	<g>
		<path fill="#ffffff" d="M432.428,269.709c-9.474-12.466-14.96-16.456-21.94-18.45c-6.982-1.995-18.949-1.995-27.926,0.499
			c-8.977,2.492-27.926,9.973-31.416,13.463c-3.49,3.49-4.489,5.484-0.499,4.987c3.989-0.5,13.464-4.489,20.943-5.984
			c7.481-1.498,19.948-1.995,28.425-1.995c8.476,0,17.951,0.997,21.441,3.49c3.492,2.494,21.443,25.432,21.443,25.432
			s-7.479-1.994-15.957-8.477c-8.477-6.483-7.98-7.979-15.958-8.977c-7.979-0.998-26.429-2.493-36.901-0.499
			c-10.472,1.995-20.944,7.481-29.92,15.46c-8.975,7.978-13.463,10.971-10.472,12.466c2.992,1.496,5.486-1.495,13.964-6.483
			c8.478-4.986,9.973-10.472,23.935-11.967c13.964-1.497,30.917-4.987,38.897-0.5c7.979,4.488,17.951,9.973,27.424,13.963
			c9.476,3.989,13.964,4.487,13.964,4.487S441.901,282.176,432.428,269.709z"/>
	</g>
</g>
<g id="Výplň_barvou_8_1_">
	<g>
		<path fill="#ffffff" d="M427.94,313.592c-1.994-2.494-8.477,5.485-17.452,6.483c-8.976,0.997-29.921,2.492-37.399,1.496
			c-7.481-0.999-14.463-6.982-18.452-11.47c-3.989-4.486-6.481-4.486-6.481-4.486s0,11.468,6.481,17.452
			c6.483,5.984,13.964,8.977,25.432,9.973c11.47,0.999,17.454,2.494,29.421-2.992c11.967-5.484,16.456-10.471,17.951-12.466
			C428.938,315.586,429.935,316.085,427.94,313.592z"/>
	</g>
</g>
<g id="Výplň_barvou_9_1_">
	<g>
		<path fill="#ffffff" d="M406.996,344.009c-0.54-2.163-3.491,0.998-11.469,1.995c-7.978,0.999-17.454,1.995-24.436-0.499
			c-6.98-2.492-14.461-8.975-15.458-6.98c-0.998,1.995,11.967,15.957,19.946,16.956c7.978,0.996,16.942-0.244,23.437-3.493
			C406,348.498,407.495,346.004,406.996,344.009z"/>
	</g>
</g>
<g id="Výplň_barvou_10_kopie">
	<g>
		<path fill="#ffffff" d="M615.437,194.411c-18.817-0.414-22.965,5.241-30.185,9.188c-39.33,21.489-39.4-5.698-44.96-4.261
			c-5.519,1.426-4.536,9.256-4.724,14.934c-0.227,6.996-3.887,12.03-6.614,11.658c-2.135-0.292-2.864-6.522-1.867-12.724
			c1.17-7.251,2.265-16.898-3.449-16.204c-5.149,0.626-15.673,27.506-43.525-7.964c-6.363-8.102-19.122-18.958-24.704-10.646
			c-3.618,5.38-5.923,6.109-7.917,13.089c-1.995,6.982-3.596,11.906-3.596,11.906s-0.497-8.477,2.494-14.96
			c2.993-6.483,8.478-12.966,3.989-15.957c-4.488-2.992-24.433-7.979-37.896-8.478c-13.465-0.499-16.956,0-17.454,5.984
			c-0.499,5.984,0.499,13.463,0.499,13.463s-2.161-5.028-2.66-9.017s1.492-9.059-5.491-6.566c-6.982,2.494-13.713,3.522-21.69,8.011
			c-7.98,4.488-3.602,5.656-2.666,14.008c0.671,5.992,3.826,10.388,5.07,11.917c0.318,0.375,0.51,0.596,0.51,0.596
			s-0.197-0.211-0.51-0.596c-1.449-1.709-5.616-6.745-7.251-10.016c-1.995-3.989-0.231-14.326-9.739-7.901
			c-12.761,8.624-29.619,20.151-46.391,49.233c-7.813,13.548-0.499,13.382,4.705,16.265c5.467,3.025,14.805,5.875,17.298,6.374
			c2.494,0.497-12.428-2.332-15.817-3.164c-7.542-1.854-11.553-8.641-15.206,2.618c-2.771,8.55-4.559,22.906-5.557,31.883
			c-0.881,7.929-1.857,25.617-1.408,40.906c0.5,16.955,9.215,28.53,15.879,34.139c20.943,17.618,35.128,20.45,41.337,15.514
			c21.962-17.462,41.032-20.325,51.082-25.156c41.531-19.966,0-6.982,0-6.982s-4.988-1.995-4.488-5.984
			c0.499-3.989,4.488-6.482,4.488-6.482l-17.453-10.472c0,0-6.981-5.485-9.475-11.469c-2.494-5.984-1.994-11.468,0.997-17.455
			c2.993-5.983,10.472-12.963,14.463-13.962c3.989-0.996,26.429-1.994,26.429-1.994l8.477-0.499c0,0-2.117-3.368,0-5.485
			c2.494-2.494,6.98-0.499,6.98-0.499l13.465,13.465c0,0,2.321,2.964,5.485,8.073c2.148,3.47,7.316,16.846,17.421-4.427
			c3.499-7.361,24.392-24.02,43.417-26.962c19-2.942,35.882,3.149,50.072,14.559c12.714,10.22,13.72,25.002,13.822,34.035
			c0.231,20.467,29.806-108.059,55.783-106.06C665.802,206.877,658.814,195.369,615.437,194.411z"/>
	</g>
</g>
<g id="Výplň_barvou_11">
	<g>
		<path fill="#ffffff" d="M485.951,441.58c-5.984-1.328-10.969-3.656-17.619-2.327c-6.649,1.331-8.977-1.33-13.298,4.655
			c-4.322,5.984-7.646,5.651-7.978,11.634c-0.333,5.984-0.333,7.315,2.99,11.637c3.326,4.322,8.977,11.635,12.966,13.629
			c3.99,1.996,1.662,0,0-4.652c-1.661-4.655-2.778-7.534-1.661-14.295c0.806-4.885,2.309-7.394,8.976-11.637
			c3.656-2.327,9.307-3.989,15.624-3.989C492.266,446.235,491.935,442.912,485.951,441.58z"/>
	</g>
</g>
<g id="Výplň_barvou_12">
	<g>
		<path fill="#ffffff" d="M567.4,457.206c-1.996-4.654-4.992-11.304-9.975-12.632c-4.987-1.332-10.974-2.661-15.624-2.328
			c-4.654,0.333-11.971,0-14.958,2.328c-2.995,2.327-7.316,3.656-7.649,5.65c-0.333,1.995-0.994,2.994-1.992,7.648
			c-0.999,4.652-0.999,7.645-1.331,12.297c-0.333,4.655,0.998-0.996,4.983-5.65c3.993-4.653,4.188-7.494,11.638-10.971
			c4.984-2.326,7.024-3.912,15.624-4.321c8.973-0.426,12.301,1.662,15.291,3.324C566.402,454.214,569.394,461.861,567.4,457.206z"/>
	</g>
</g>
<g id="Výplň_barvou_13">
	<g>
		<path fill="#ffffff" d="M685.747,595.337c0,0-27.429-67.32-33.41-81.285c-5.981-13.959-26.931-58.343-36.401-73.301
			c-9.476-14.96-21.37-36.26-24.933-42.388c-4.155-7.148-3.989-3.988,1.493,12.966c5.486,16.955,14.962,50.365,19.949,77.293
			c4.984,26.927,6.623,45.128,5.981,68.815c-0.916,33.878-9.471,51.359-13.464,58.344c-3.985,6.979-7.979,13.46-19.447,15.457
			c-11.467,1.992-19.945-2.991-15.456,6.48c4.487,9.476,2.494,15.961,8.972,16.955c6.484,0.998,23.938,3.989,22.94,0.499
			c-0.994-3.49-2.492-7.479-2.991-12.966c-0.499-5.482,0.999-8.478,0.999-8.478s2.99,5.487,3.489,8.478
			c0.496,2.995,1.494,13.964,4.984,12.966c3.493-0.999,17.457-1.493,21.945-3.49c4.489-1.992,0-7.479,0.994-9.975
			c0.998-2.491,2.991-3.49,2.991,0.499s0.504,9.476,3.489,7.483c2.996-1.996,21.443-10.974,24.438-23.439
			c2.991-12.467,3.985-5.487,3.49-0.5c-0.499,4.988-3.988,14.963-8.478,22.442c-4.487,7.479-10.969,9.971-10.969,13.964
			c0,3.989,0.494,6.48-0.504,9.971c-0.994,3.49-1.992-3.989-1.992-6.48c0-2.496-1.993-2.996-4.488-1.997
			c-2.491,0.997-8.973,3.988-17.948,5.985c-8.978,1.992-13.466,0.995-15.957,2.991c-2.496,1.996-1.501-1.996-2.496,6.98
			c-0.998,8.977-2.495,13.964-2.495,13.964s0.503-5.486-0.495-11.47c-0.999-5.984-0.999-10.474-3.49-10.474
			c-2.496,0-9.476-1.992-14.963,0.5c-5.482,2.495-3.489,8.977-3.988,13.464c-0.5,4.489,0.998,10.471-2.991,27.426
			c-3.988,16.954-7.982,25.931-15.961,30.419s-14.458,8.977-23.431,10.47c-8.977,1.498-9.48,0.499-11.972,5.986
			c-2.492,5.486-3.989,5.486-1.494,10.97c2.492,5.486,20.445,10.972,23.936,11.471c3.49,0.495,63.826-8.977,63.826-8.977
			l47.873-33.908l32.912-69.812L685.747,595.337z"/>
	</g>
</g>
<g id="Výplň_barvou_14">
	<g>
		<path fill="#ffffff" d="M494.426,735.715c-1.179-13.518,2.244-23.274-0.744-23.497c-4.047-0.301-5.849,17.73-6.256,22.844
			c-0.727,9.105-5.82,25.006,6.306,23.919C498.277,758.57,495.42,747.118,494.426,735.715z"/>
	</g>
</g>
<g id="Výplň_barvou_15">
	<g>
		<path fill="#ffffff" d="M668.293,208.873c-7.479-4.985-9.496-5.797-11.987-3.303s-4.967,7.792-4.967,7.792s0.998-4.987,2.491-7.48
			c1.501-2.494,1.996-3.492-1.993-4.987c-3.987-1.496-22.437-3.989-22.437-3.989l-43.885,9.308c0,0-35.655,7.271-30.914,17.62
			c5.535,12.097,7.401,18.066,14.459,32.412c11.103,22.576-3.502,64.136,4.655,53.688c5.011-6.416,22.773-28.256,22.773-28.256
			l4.488-3.49c0,0,0.771-0.323,4.817-2.328c2.572-1.274,6.65-2.66,6.65-2.66s-2.994-5.484-8.977-7.479
			c-5.981-1.994-5.981-6.482-5.981-8.976c0-2.494-0.503-9.474,6.478-16.955c6.983-7.479,4.488-11.968,23.938-16.457
			c19.45-4.487,23.436-2.493,31.917-0.996c8.473,1.496,12.467-0.998,13.96-4.988C675.273,213.361,675.777,213.86,668.293,208.873z"
			/>
	</g>
</g>
<g id="Výplň_barvou_16">
	<g>
		<path fill="#ffffff" d="M779.493,299.131c0,0-8.472,17.452-9.971,34.407c-1.497,16.954-9.476,46.874-16.455,62.332
			c-6.979,15.459-7.483,13.465-13.964,18.451c-6.481,4.987-8.973,4.488-10.474,9.475c-1.6,5.341-0.378,6.732,2.58,17.059
			c2.492,8.705,3.093,15.375,0.479,25.307c-3.52,13.336-8.149,19.967-14.61,23.685c-9.275,5.343-21.231,8.655-37.585,6.214
			c-11.992-1.791-26.775-7.913-38.625-22.397c-13.465-16.456-22.442-34.409-28.923-43.384
			c-6.48-8.977,37.899,114.193,37.899,114.193l46.871,36.9l52.861-28.922l36.4-109.705l0.499-116.687L779.493,299.131z"/>
	</g>
</g>
<g id="Výplň_barvou_17">
	<g>
		<path fill="#ffffff" d="M740.768,449.788c4.987,3.49,6.317-16.519,10.303-20.508c3.994-3.989,4.987-8.977,3.994-13.961
			c-0.999-4.987,12.637-60.328,13.853-76.12c-4.929,13.116-2.417-12.901-6.54-29.432c-9.317-29.198-20.778-46.146-38.942-65.324
			c-13.439-14.199-44.44-33.576-54.975-36.276c-5.466-1.402-17.183,10.638-39.06,8.684c-14.934-1.333-92.752,25.432-107.711,26.431
			c-14.962,0.996-69.315,30.417-71.311,37.897c-1.684,6.318-12.939,15.601,0.708,19.634c2.508,0.741,10.846,1.971,15.251,2.308
			c14.426,1.1,14.51-21.106,23.436-29.422c5.291-4.928,8.905-8.723,21.098-8.948c3.113-0.058,7.24-2.759,13.489-2.02
			c7.279,0.861,10.584,4.807,13.862,6.109c10.027,3.979,13.766,10.021,16.379,16.161c5.365,12.635-0.171,46.494,11.963,62.999
			c12.467,16.955,17.759,38.976,26.598,65.656c8.644,26.098,27.757,69.98,27.757,69.98s2.496,10.971,5.487,12.467
			c2.142,1.068,100.527,26.91,116.646,26.928c2.409,0,20.826-39.823,6.078-59.2c-9.643-12.665-14.66-19.351-17.137-22.473
			c-0.701-0.761-1.396-1.534-2.074-2.312c-0.522-0.165,1.037,2.946,1.258,5.37c0.876,9.715-8.847,31.68-31.925,33.859
			c-27.746,2.619-26.004-27.675-50.199-55.477c-11.343-13.039-24.369-19.572-25.366-25.057c-0.999-5.486,2.102-8.946,7.146-11.657
			c3.373-1.812,7.726,0.463,18.654,4.468c12.598,4.612,26.103,6.982,41.061,14.96c14.958,7.978,30.346,21.264,34.778,27.737
			c1.207,1.762,2.836,3.781,4.594,5.796c0.223,0.07,0.826,0.739,2.074,2.312C735.549,445.217,739.188,448.681,740.768,449.788z
			 M615.753,305.792c11.672-18.43,33.846-12.205,45.422-7.499c9.939,4.04,16.145,19.505,15.251,28.005
			c-0.431,4.106-21.265,5.915-26.248,5.915c-4.991,0-14.52-0.012-24.836-0.509C608.307,330.886,611.35,312.742,615.753,305.792z
			 M676.843,338.528c-1.837,2.671-8.298,7.726-11.788,10.468c-3.489,2.742-8.229,5.402-14.211,6.648
			c-5.986,1.247-13.814,1.019-19.998-0.883c-6.039-1.854-10.9-3.75-15.138-6.992c-7.077-5.41-18.266-17.001-11.491-12.486
			c3.74,2.494,10.47,6.732,17.454,8.228c6.983,1.497,18.216,2.214,26.941,0.219c8.725-1.995,15.529-4.024,19.835-6.17
			c4.817-2.4,10.774-8.908,11.772-7.163C681.215,332.142,679.542,334.603,676.843,338.528z M671.536,293.644
			c-3.738-1.994-10.848-7.821-22.438-9.224c-1.274-0.154-21.905-1.601-20.063-5.834c1.076-2.479,3.296-3.603,10.746-3.97
			c3.223-0.158,5.795,0.416,11.558,1.264c11.017,1.623,14.703,2.181,27.785,17.931C688.446,305.029,668.788,292.182,671.536,293.644
			z"/>
	</g>
</g>
<g id="Výplň_barvou_18">
	<g>
		<path fill="#ffffff" d="M592.001,682.602c-1.331-3.66-1.056-6.988-2.184-9.041c-1.218-2.208-2.207-3.372-11.147-1.254
			c-11.764,2.783-36.076,10.685-51.737,11.991c-14.423,1.204-30.995,2.995-42.378,2.058c-10.283-0.849-18.618-5.973-31.568-6.923
			c-12.019-0.885-20.415,0.296-26.398,3.286c-5.984,2.991,14.751,5.293,29.224,7.991c19.599,3.652,32.844,5.158,48.468,4.16
			c15.624-1,29.211,2.689,39.519,6.346c10.299,3.657,30.838,9.703,28.357,19.845c-2.572,10.53,5.589,5.523,7.582,5.194
			c1.995-0.333,10.932-10.742,12.596-16.062C593.993,704.873,593.328,686.258,592.001,682.602z"/>
	</g>
</g>
</svg>
